<svg xmlns="http://www.w3.org/2000/svg" width="256" height="256"><path fill="#1976D2" fill-opacity=".016" fill-rule="evenodd" d="M0 128.004v128.004l128.25-.254 128.25-.254.254-127.75L257.008 0H0zm.485.496c0 70.4.119 99.053.265 63.672s.146-92.98 0-128S.485 58.1.485 128.5"/><path fill="#1976D2" fill-opacity=".111" fill-rule="evenodd" d="M131 18.859v18.859l11.647 12.708c9.754 10.642 11.421 12.915 10.25 13.98-.768.7-5.936 5.131-11.484 9.848l-10.088 8.576-.66 26.335c-.974 38.811-.831 80.06.276 79.668.517-.183 17.28-14.119 37.25-30.969 55.499-46.828 60.713-51.303 60.763-52.151.025-.434-7.491-8.99-16.704-19.015s-17.304-18.931-17.981-19.792c-1.048-1.332.032-2.635 7.25-8.749L210 50.973V33.986c0-9.342-.246-16.986-.547-16.986s-8.211 6.495-17.577 14.432l-17.031 14.433-21.036-22.933C142.239 10.32 132.374 0 131.886 0S131 8.487 131 18.859M75 59.148c-26.675 22.601-48.62 41.398-48.766 41.771s7.841 9.515 17.75 20.316S62 141.027 62 141.217s-4.046 3.705-8.991 7.813l-8.991 7.47-.009 17.25c-.005 9.488.172 17.25.394 17.25.221 0 8.418-6.795 18.215-15.1l17.813-15.1 2.45 2.85c8.645 10.059 39.57 43.35 40.269 43.35.468 0 .85-8.557.85-19.015v-19.016l-11.604-12.603c-11.16-12.122-11.533-12.668-9.75-14.311 1.02-.939 6.17-5.362 11.445-9.83l9.591-8.124.66-16.749c.364-9.212.323-17.055-.09-17.429s-9.933 7.13-21.155 16.676l-20.403 17.357-5.665-6.228a1899 1899 0 0 1-9.282-10.278l-3.618-4.05 30.436-25.799L125 51.801V34.9c0-9.295-.338-16.887-.75-16.872S101.675 36.547 75 59.148m90.189 29.827L158 95.178v35.967l2.887-2.323c1.589-1.277 8.985-7.469 16.437-13.759l13.549-11.438-3.93-4.562c-2.162-2.51-6.323-7.202-9.248-10.427l-5.318-5.863zM63 227.93l-7.5.57-.626 7c-.344 3.85-.681 10.037-.75 13.75L54 256h8v-4.5c0-3.996.252-4.502 2.25-4.514 5.281-.032 6.75-1.058 6.75-4.716v-3.497l-4.5.675c-4.028.604-4.5.47-4.5-1.28 0-2.286 1.838-3.168 6.603-3.168 2.675 0 3.687-.542 4.55-2.436 1.264-2.776.532-5.651-1.372-5.384-.704.099-4.656.437-8.781.75m19-.029-6.5.599-.619 7.5c-.341 4.125-.678 10.313-.75 13.75L74 256l8.75-.015c4.813-.009 9.349-.395 10.08-.859.756-.479 1.188-2.092 1-3.735-.317-2.778-.557-2.903-6.146-3.193-6.968-.362-7.361-2.434-.606-3.198 4.136-.468 4.442-.71 4.735-3.75l.314-3.25h-5.032c-4.062 0-4.921-.289-4.457-1.5.396-1.032 2.025-1.505 5.219-1.515 5.927-.02 7.385-.981 6.973-4.594-.376-3.297-1.57-3.528-12.83-2.49m14.575.285c-.227.723-.642 7.294-.922 14.602l-.511 13.288 8.679-.288 8.679-.288.307-4.25.308-4.25h-9.863l.124-9.75.124-9.75-3.257-.314c-2.043-.197-3.41.176-3.668 1m18.073 4.064c-.347 2.887-.635 9.412-.639 14.5L114 256h8l.009-9.25c.004-5.088.292-11.613.639-14.5l.631-5.25h-8zm25.551-4.308c-1.815.455-3.481 1.007-3.702 1.227-.22.221-.715 6.348-1.098 13.616L134.701 256h5.515c4.083 0 6.205-.544 8.177-2.095 6.536-5.141 8.95-18.097 4.357-23.383-2.516-2.896-7.332-3.885-12.551-2.58m23.801-.019-6.5.577-.662 5c-.365 2.75-.702 8.954-.75 13.788l-.088 8.787 9.25-.287 9.25-.288.31-3.75.311-3.75h-5.561c-4.177 0-5.56-.359-5.56-1.443 0-.982 1.356-1.54 4.25-1.75 3.989-.288 4.269-.506 4.563-3.557.313-3.245.307-3.25-4.333-3.25-6.623 0-5.368-2.358 1.598-3l5.422-.5.31-3.75c.35-4.227 1.323-3.994-11.81-2.827m13.504.327c-.238.688.788 7.1 2.281 14.25l2.715 13 4.005.296 4.006.295 3.752-12.295c2.064-6.763 3.749-12.868 3.745-13.567-.011-1.711-4.801-3.848-5.944-2.652-.486.508-1.76 3.813-2.832 7.346l-1.949 6.423-1.274-5.423c-.7-2.983-1.68-6.21-2.176-7.173-1.035-2.006-5.68-2.373-6.329-.5M143 238.375c0 1.856-.281 4.781-.625 6.5-.878 4.389 1.888 4.199 4.011-.276 2.523-5.317 1.857-9.599-1.493-9.599-1.483 0-1.893.73-1.893 3.375"/><path fill="#1976D2" fill-opacity=".404" fill-rule="evenodd" d="M132.042 18.841 132 38.182l11 12.131c6.05 6.672 11 12.464 11 12.871 0 .406-5.118 5.068-11.374 10.359l-11.373 9.62-.468 52.669c-.258 28.967-.393 52.777-.302 52.909.092.133 3.508-2.552 7.592-5.966 13.964-11.674 83.418-70.542 87.203-73.912l3.778-3.363L211.072 86c-9.891-10.725-18.004-19.831-18.028-20.236s3.781-3.977 8.456-7.937l8.5-7.2V16.855l-2.317 1.822C206.409 19.68 198.722 26.125 190.6 33s-15.078 12.617-15.46 12.759c-.559.208-24.79-25.728-39.848-42.653L132.083-.5zm-9.531.142c-.334.54-22.185 19.241-48.558 41.556l-47.95 40.574 17.999 19.692C53.901 131.635 62 140.778 62 141.122s-4.05 4.09-9 8.323l-9 7.698v34.003l3.375-2.823c1.857-1.553 9.97-8.394 18.029-15.202 13.542-11.44 14.784-12.26 16.375-10.81.946.862 10.496 11.228 21.221 23.034 10.725 11.807 19.573 21.396 19.662 21.311s.291-8.581.448-18.879l.286-18.722-10.948-12.097c-6.021-6.653-11.083-12.469-11.247-12.924s4.897-5.262 11.248-10.681l11.547-9.853.002-16.872c.002-15.926-.096-16.796-1.748-15.501-.963.755-10.242 8.537-20.621 17.295l-18.87 15.924-8.384-8.923c-4.611-4.908-8.835-9.688-9.388-10.623-.847-1.435 3.547-5.566 28.19-26.5 16.056-13.64 29.592-25.072 30.08-25.404 1.367-.93 2.296-34.896.954-34.896-.601 0-1.366.442-1.7.983m42.239 69.773L158 94.409v18.354c0 14.414.268 18.195 1.25 17.611 2.238-1.333 31.75-26.48 31.75-27.055 0-.847-18.126-20.326-18.86-20.268-.352.028-3.677 2.595-7.39 5.705m-49.233 139.061c-.935.935-.539 2.315.483 1.683 1.338-.827 1.28.82-.076 2.176-.592.592-1.335 6.338-1.652 12.77l-.576 11.693 3.85-.32 3.851-.319.137-5c.076-2.75.278-9.05.45-14l.313-9-3.132-.1c-1.722-.055-3.364.132-3.648.417m74.402 6.445c-2.516 8.392-3.011 8.341-4.967-.512-1.239-5.607-1.354-5.75-4.63-5.75-2.968 0-3.301.263-2.853 2.25 2.184 9.703 5.531 25.098 5.531 25.445 0 .234 1.631.286 3.623.115l3.624-.31 3.989-12.871c3.246-10.475 3.735-13.033 2.627-13.74-.75-.477-1.896-.673-2.548-.435a1.28 1.28 0 0 1-1.628-.76c-.243-.657-1.488 2.299-2.768 6.568m-133.323-5.417c-.731 1.183-1.422 7.093-2.093 17.905l-.575 9.25h3.536c3.462 0 3.536-.084 3.536-4.025 0-3.4.398-4.176 2.565-5 1.411-.536 3.661-.975 5-.975 2.039 0 2.435-.488 2.435-3 0-2.889-.167-3-4.5-3-4.133 0-4.5-.204-4.5-2.5 0-2.151.454-2.502 3.25-2.514 5.988-.025 7.75-.957 7.75-4.103V228h-7.941c-4.368 0-8.176.38-8.463.845m19.039 3.405c-.816 5.856-1.044 22.674-.318 23.4.327.327 4.439.274 9.138-.118L93 254.82v-7.05l-5.5.687c-5.118.639-5.5.543-5.5-1.385 0-1.478.645-2.076 2.25-2.086 5.047-.03 6.75-1.1 6.75-4.239 0-3.003-.024-3.016-4.5-2.402-4.026.552-4.5.408-4.5-1.364 0-1.515.676-1.981 2.875-1.981 1.581 0 4.281-.281 6-.625 2.63-.526 3.125-1.08 3.125-3.5V228H76.227zm21.013 1c-.347 2.887-.635 9.188-.639 14L96 256h3.86c2.124 0 5.949-.286 8.5-.636 4.474-.613 4.64-.756 4.64-4V248h-10.302l.609-10 .609-10h-3.319c-3.257 0-3.33.098-3.949 5.25m41.602-4.219c-1.997.803-2.251 1.61-2.257 7.187-.004 3.455-.294 9.319-.645 13.032l-.637 6.75h4.694c5.889 0 9.807-1.989 12.5-6.346 4.115-6.659 3.6-18.243-.919-20.662-2.27-1.214-9.674-1.192-12.736.039m19.377.719c-.28.963-.818 7.262-1.196 14l-.688 12.25h3.482c1.915 0 6.271-.292 9.681-.648l6.199-.648-.303-3.102c-.297-3.05-.393-3.102-5.71-3.102-3.433 0-5.564-.457-5.834-1.249-.469-1.381.45-1.797 5.992-2.718 3.39-.564 3.75-.92 3.75-3.714 0-3.088-.004-3.09-4.5-2.474-4.026.552-4.5.408-4.5-1.364 0-1.515.676-1.981 2.875-1.981 1.581 0 4.281-.281 6-.625 2.63-.526 3.125-1.08 3.125-3.5V228h-8.933c-7.647 0-9.005.252-9.44 1.75m-13.729 5.287c-1.15.644-1.638 2.663-1.792 7.413-.181 5.605.014 6.441 1.379 5.918.874-.336 2.247-1.883 3.052-3.44 2.859-5.529 1.133-12.002-2.639-9.891"/><path fill="#1976D2" fill-opacity=".308" fill-rule="evenodd" d="M132 19.44v18.441l11.646 12.628c9.743 10.566 11.417 12.836 10.25 13.898-.768.699-5.969 5.181-11.559 9.96l-10.162 8.69-.641 8.221c-.353 4.522-.505 28.14-.338 52.485l.304 44.263 41.074-34.763c22.59-19.12 44.273-37.463 48.183-40.763s7.139-6.338 7.176-6.752-7.021-8.458-15.683-17.878-16.745-18.354-17.96-19.855l-2.211-2.729 8.461-7.204 8.46-7.204V17.845l-12.75 10.781c-7.012 5.93-14.697 12.464-17.076 14.52l-4.326 3.74-21.008-22.943C142.285 11.324 132.644 1 132.416 1c-.229 0-.416 8.298-.416 18.44M75.5 59.601C49.1 81.929 27.368 100.55 27.206 100.98s7.826 9.618 17.75 20.418S63 141.167 63 141.33s-4.05 3.614-9 7.67l-9 7.374-.077 15.063c-.042 8.285-.227 15.85-.411 16.813s-.145 1.75.087 1.75 8.404-6.773 18.16-15.052c17.116-14.524 17.794-14.983 19.326-13.092.873 1.078 10.323 11.501 21.001 23.162L122.5 206.22l.272-18.648.272-18.648-11.562-12.636c-9.165-10.016-11.295-12.876-10.272-13.792.709-.636 6.128-5.314 12.04-10.396l10.75-9.241V89.651l-2.25 2.043C114.868 97.94 83.52 124 82.888 124c-1.26 0-18.388-19.021-18.388-20.42 0-.722 13.387-12.663 29.75-26.536L124 51.821V35.41c0-9.025-.112-16.409-.25-16.409-.138.001-21.85 18.271-48.25 40.6m89.25 28.909L157 95.149v18.509c0 10.945.379 18.372.927 18.175.51-.183 8.362-6.599 17.448-14.258l16.52-13.925-4.932-5.575a2685 2685 0 0 0-9.698-10.89L172.5 81.87zM60.39 228.725l-4.11.376-.633 6.7c-.348 3.684-.636 9.736-.64 13.449L55 256h3c2.887 0 3-.169 3-4.481 0-4.754.285-4.987 7-5.739 1.898-.213 2.576-.943 2.816-3.03.309-2.684.194-2.75-4.819-2.75-4.754 0-5.112-.167-4.817-2.25.271-1.905 1.202-2.39 6.07-3.162 5.435-.862 5.75-1.067 5.75-3.75 0-2.7-.207-2.829-4.25-2.663-2.338.096-6.1.344-8.36.55m18.997-.012c-3.016.381-3.133.584-3.75 6.487-.35 3.351-.637 9.459-.637 13.572v7.478l3.125-.625c1.719-.344 5.769-.625 9-.625 5.861 0 5.875-.007 5.875-3v-3h-6c-4.126 0-6.004-.39-6.014-1.25-.007-.687-.303-2.333-.657-3.656-.456-1.704-.301-2.195.53-1.681.645.399.871 1.214.502 1.812-.46.745.362.88 2.609.431 1.804-.361 4.155-.656 5.225-.656 1.444 0 1.862-.578 1.625-2.25-.266-1.87-1.037-2.302-4.57-2.557-3.395-.246-4.25-.689-4.25-2.201 0-1.571 1.019-2.008 6-2.572 5.782-.654 6-.782 6-3.549 0-2.847-.048-2.87-5.75-2.711-3.162.088-7.151.337-8.863.553m17.163 12.869c-.396 7.47-.545 13.756-.331 13.97.213.213 3.964.064 8.334-.332l7.947-.72.313-3.25.314-3.25H103v-20h-5.73zm20.977-11.832c-.378.963-.87 3.775-1.092 6.25s-.912 7.308-1.531 10.739c-.62 3.432-.865 6.919-.547 7.75.645 1.679 6.643 2.14 6.643.511 0-.55-.562-1.007-1.25-1.015-.871-.011-.914-.238-.143-.75.639-.424 1.404-5.915 1.81-12.985.673-11.726.62-12.25-1.25-12.25-1.074 0-2.262.787-2.64 1.75m21.837-1.059c-1.912.374-2.2 1.281-2.739 8.614-.332 4.507-.699 10.445-.816 13.195l-.213 5 4.58-.055c7.396-.089 12.107-4.309 13.946-12.493 1.161-5.165-.388-11.325-3.373-13.415-2.07-1.45-6.589-1.786-11.385-.846m21.987.025c-3.797.477-4.203 2.005-4.456 16.784-.165 9.622-.09 9.997 1.967 9.929 1.176-.04 5.288-.152 9.138-.25l7-.179v-6h-6c-4.126 0-6.004-.39-6.014-1.25-.007-.687-.303-2.333-.657-3.656-.456-1.704-.301-2.195.53-1.681.645.399.893 1.179.551 1.733-.408.661 1.053.765 4.233.303 5.815-.844 5.707-.77 4.881-3.374-.536-1.689-1.483-2.075-5.091-2.075-3.314 0-4.433-.387-4.433-1.531 0-1.839 1.279-2.39 7.65-3.295 4.342-.616 4.883-.976 5.166-3.431.315-2.728.285-2.742-5.5-2.583-3.199.088-7.233.338-8.965.556m16.648.468c-.002 4.094 3.399 17.688 4.288 17.139.597-.369.716-.137.286.559-.405.655-.435 2.975-.067 5.155.627 3.712.886 3.963 4.082 3.963 1.877 0 3.412-.167 3.412-.371 0-.322 5.464-18.295 7.375-24.255.519-1.621.199-2.252-1.347-2.656-1.115-.292-2.028-.123-2.028.376 0 .498-.601.906-1.336.906-.781 0-2.029 2.493-3.004 6-.918 3.3-2.017 6-2.442 6s-1.436-3.037-2.246-6.75c-1.351-6.193-1.699-6.776-4.222-7.066-1.767-.204-2.75.154-2.751 1m-35.459 6.066c-.898 2.83-1.148 12.875-.332 13.379 1.319.815 3.701-1.534 5.628-5.551 1.478-3.081 1.531-3.96.385-6.328-1.376-2.845-4.954-3.79-5.681-1.5"/></svg>