<svg xmlns="http://www.w3.org/2000/svg" width="256" height="256"><path fill="#1976D2" fill-opacity=".016" fill-rule="evenodd" d="M0 128.004v128.004l128.25-.254 128.25-.254.254-127.75L257.008 0H0zm.485.496c0 70.4.119 99.053.265 63.672s.146-92.98 0-128S.485 58.1.485 128.5"/><path fill="#1976D2" fill-opacity=".127" fill-rule="evenodd" d="M131 15.893v16.059l9.25 10.092c5.088 5.55 9.353 10.398 9.479 10.774s-3.966 4.212-9.094 8.526l-9.323 7.845-.656 21.067c-.885 28.432-.831 67.745.094 67.739.739-.004 75.596-63.015 80.036-67.37l2.286-2.243-15.013-16.441c-8.256-9.042-14.91-16.716-14.786-17.051.125-.336 3.264-3.177 6.977-6.313l6.75-5.702V28.282c0-13.795-.096-14.511-1.75-13.11C176.864 30.737 168.08 38 167.641 38c-.298 0-8.259-8.437-17.692-18.75C140.517 8.938 132.394.35 131.899.167 131.39-.022 131 6.803 131 15.893m-7.473.064c-.507.82-75.444 64.696-79.276 67.574-1.083.813 1.811 4.518 13.666 17.5 8.271 9.058 15.049 16.775 15.061 17.15.012.374-3.353 3.472-7.478 6.884l-7.5 6.204v14.366c0 7.901.242 14.365.537 14.365s6.483-5.063 13.75-11.252c7.267-6.188 13.955-11.83 14.861-12.537 1.446-1.129 3.782 1.054 19 17.751C115.692 164.433 123.838 173 124.25 173s.75-7.118.75-15.819v-15.819l-9.507-10.431-9.508-10.431 5.718-5c3.145-2.75 7.434-6.575 9.531-8.5l3.813-3.5.632-14.25c.369-8.311.255-14.244-.273-14.236-.499.008-8.303 6.308-17.343 14C99.022 96.706 91.298 103 90.898 103s-4.085-3.675-8.191-8.166l-7.465-8.166 25.379-21.514L126 43.641V29.32c0-12.996-.622-16.358-2.473-13.363m35.794 58.827-5.178 4.716-.372 15.165-.371 15.165 2.082-1.665c1.145-.916 7.344-6.128 13.776-11.583l11.694-9.918-7.302-8.024c-4.017-4.413-7.718-8.147-8.226-8.298s-3.254 1.848-6.103 4.442M139.5 186.672c-1.1.242-3.238.92-4.75 1.505l-2.75 1.066v20.723c0 23.608-.03 23.52 8.247 24.654 13.273 1.82 21.536-5.954 22.532-21.199.908-13.911-4.42-23.834-14.108-26.274-4.682-1.179-5.727-1.233-9.171-.475m-51.833.995c-.367.366-.667 9.941-.667 21.277C87 235.014 86.493 234 99.522 234c8.474 0 9.517-.204 10.509-2.059.606-1.132.811-3.382.456-5-.639-2.909-.721-2.941-7.566-2.941H96v-17.3c0-12.122-.359-17.659-1.2-18.5-1.283-1.283-6.028-1.638-7.133-.533m28 0c-1.069 1.069-.768 40.938.331 43.828.868 2.284 1.487 2.586 4.75 2.315l3.752-.31.27-20.632c.31-23.694-.117-25.868-5.079-25.868-1.847 0-3.658.3-4.024.667m81.865.686c-1.697 1.241-1.749 1.864-.632 7.547 1.596 8.111 7.595 29.957 9.438 34.367 1.627 3.893 5.013 5.31 9.034 3.782 2.79-1.061 5.617-8.701 10.196-27.549 3.086-12.701 3.157-17.042.306-18.568-3.998-2.139-6.428.111-7.807 7.229-2.601 13.424-5.366 25.873-5.678 25.561-.179-.179-1.927-7.277-3.884-15.774-4.056-17.606-5.86-20.334-10.973-16.595m-168.497 1.581c-1.105 2.066-1.485 39.73-.428 42.484.41 1.068 1.873 1.582 4.5 1.582H37v-17h6.025c5.367 0 6.12-.251 6.899-2.301.481-1.265.643-3.515.359-5-.497-2.596-.759-2.699-6.9-2.699H37l-.001-4.75-.002-4.75 5.405.337c7.423.463 9.598-.868 9.598-5.872V188H41.035c-9.817 0-11.073.202-12 1.934m29 0c-.611 1.143-1.035 9.877-1.035 21.345C57 235.094 56.36 234 70.294 234c8.704 0 9.742-.199 10.737-2.059.606-1.132.811-3.382.456-5-.644-2.932-.667-2.941-8.066-2.941H66v-9h5.8c6.429 0 8.2-1.097 8.2-5.078 0-3.958-2.136-5.161-8.468-4.767l-5.535.345.002-4.206.001-4.206 7.25-.294 7.25-.294.307-4.25.308-4.25H70.093c-9.874 0-11.13.202-12.058 1.934m111.522.289c-1.271 1.814-1.554 5.534-1.542 20.25.019 23.734-.401 22.941 12.364 23.314 10.567.31 12.621-.395 12.621-4.328 0-4.983-.75-5.459-8.607-5.459H177v-9h6.481c6.006 0 6.525-.176 7.083-2.398.331-1.319.452-3.457.269-4.75-.307-2.169-.859-2.375-7.083-2.648l-6.75-.295v-7.821l7.145-.294c7.925-.326 9.632-1.561 8.483-6.139l-.666-2.655h-10.424c-9.639 0-10.542.168-11.981 2.223m-27.307 6.439c-.916.37-1.25 4.224-1.25 14.421V225h2.944c4.495 0 8.072-3.704 9.15-9.475 1.654-8.853-.953-16.583-6.213-18.417-1.749-.609-3.225-1.072-3.28-1.029-.056.043-.663.306-1.351.583m-40.04 50.508c.193 5.429.709 8.308 1.54 8.583.892.295 1.25-1.063 1.25-4.739 0-4.772.166-5.129 2.25-4.834 1.925.274 2.294 1.015 2.557 5.134.381 5.956 2.555 5.893 2.998-.087.353-4.777-2.622-8.77-5.897-7.913-1.487.389-1.908-.032-1.908-1.908 0-1.5-.58-2.406-1.54-2.406-1.286 0-1.493 1.353-1.25 8.17m30.79-.277c0 8.429.414 9.107 5.559 9.107 5.567 0 7.116-10.032 1.857-12.032-1.319-.502-3.078-.651-3.907-.333-1.107.425-1.509-.115-1.509-2.028 0-1.434-.45-2.607-1-2.607-.582 0-1 3.298-1 7.893m37 .607c0 5 .412 8.5 1 8.5.55 0 1-1.209 1-2.687v-2.687l2.805 2.687c1.542 1.478 3.117 2.687 3.5 2.687 1.622 0 .495-2.585-1.992-4.567l-2.686-2.142 2.686-1.761c1.478-.968 2.687-2.158 2.687-2.645 0-1.576-2.313-.94-4.686 1.289L172 248.349v-4.675c0-2.571-.45-4.674-1-4.674-.588 0-1 3.5-1 8.5m44.667-7.833c-.367.366-.667 1.379-.668 2.25 0 1.013-.97 1.639-2.695 1.739-5.073.295-7.078 6.57-3.304 10.344 2.026 2.026 4.54 2.498 7.418 1.393 1.258-.483 1.582-2.225 1.582-8.5 0-7.253-.563-8.997-2.333-7.226m-175.461 7.985.294 7.848h4.417c2.644 0 4.584-.502 4.833-1.25.281-.843-.735-1.25-3.119-1.25h-3.536l-.297-6.171c-.19-3.939-.766-6.325-1.592-6.598-1.001-.33-1.227 1.35-1 7.421m54.433-6.958c-1.333 1.333-.666 13.039.813 14.266 1.7 1.411 4.712 1.05 5.272-.631.248-.745-.358-.976-1.667-.634-1.83.479-2.057.084-2.057-3.578 0-3.45.324-4.117 2-4.117 1.1 0 2-.45 2-1s-.9-1-2-1-2-.648-2-1.441c0-1.671-1.427-2.798-2.361-1.865m-41.122 4.698c-2.898 2.898-3.166 5.237-.96 8.385 2.086 2.979 6.8 2.979 8.886 0 2.9-4.14 1.433-8.87-3.176-10.238-1.629-.484-2.915.018-4.75 1.853m24.938.063c-2.976 2.975-3.13 5.87-.455 8.545 2.026 2.026 4.54 2.498 7.418 1.393 2.738-1.051 1.736-2.586-1.259-1.928-1.872.411-3.241.142-4.014-.79-.969-1.168-.474-1.527 2.841-2.057 4.672-.747 5.48-3.478 1.791-6.061-2.938-2.058-3.438-1.987-6.322.898m39.768-.898c-2.849 1.995-3.02 7.412-.311 9.863 2.208 1.998 7.2 1.79 7.897-.329.33-1.003-.049-1.213-1.313-.728-2.021.776-5.496-.073-5.496-1.342 0-.465 1.8-1.149 4-1.521 4.493-.759 5.092-2.408 2-5.5-2.407-2.407-3.84-2.501-6.777-.443m30.527-.868c-2.821.737-2.009 2.311 1.191 2.311 4.235 0 4.652 1.666.607 2.425-6.687 1.255-5.447 7.947 1.366 7.376 3.544-.298 3.59-.359 3.9-5.268.403-6.381-1.559-8.282-7.064-6.844m11.609 1.861c-2.847 2.847-2.653 6.88.445 9.242 2.053 1.566 6.379 1.203 6.967-.586.302-.92-.275-1.118-1.997-.685-3.134.786-5.22-1.607-4.367-5.008.498-1.981 1.262-2.513 3.612-2.513 3.19 0 4.005-1.393 1.399-2.393-2.582-.991-3.381-.735-6.059 1.943m23.614-.729c-2.94 2.381-3.156 7.84-.39 9.865 2.314 1.692 7.589 1.345 8.208-.541.338-1.026-.274-1.198-2.513-.706-1.993.438-3.343.188-4.133-.764-.969-1.168-.474-1.527 2.841-2.057 2.909-.465 4.01-1.12 3.999-2.38-.038-4.329-4.524-6.242-8.012-3.417m12.777-.741c-1.328.774-1.75 2.334-1.75 6.47 0 2.997.45 5.45 1 5.45s1-2.25 1-5c0-4.637.178-5 2.445-5 2.201 0 2.476.466 2.75 4.672.433 6.634 2.805 7.03 2.805.468 0-4.061-.427-5.326-2.223-6.583-2.571-1.801-3.612-1.884-6.027-.477m-132.188 2.17c1.323 4.273 3.942 9.107 5.146 9.497 1.15.373 3.686-4.483 4.929-9.439.829-3.3-1.461-2.925-2.691.442a264 264 0 0 1-1.592 4.25c-.382.977-1.099.017-2.054-2.75-.839-2.432-2.102-4.25-2.951-4.25-1.078 0-1.294.614-.787 2.25m-9.853.374c-1.197 1.197-.787 5.067.664 6.271 2.381 1.976 4.77.211 4.431-3.273-.22-2.255-.871-3.203-2.345-3.414-1.123-.161-2.36.027-2.75.416m24.75.443c-1.001 1.619.023 2.101 2.916 1.375 1.436-.36 2.363-1.057 2.059-1.549-.766-1.239-4.175-1.121-4.975.174m39.179.433c-.633 1.65-.224 1.764 3.112.87 1.237-.332 2.25-1.001 2.25-1.487 0-1.513-4.754-.966-5.362.617m18.071-.876c-1.32 1.32-.735 6.429.804 7.019 2.274.873 4.628-1.629 4.288-4.557-.296-2.541-3.476-4.078-5.092-2.462m47.75.443c-1.001 1.619.023 2.101 2.916 1.375 1.436-.36 2.363-1.057 2.059-1.549-.766-1.239-4.175-1.121-4.975.174m26.208-.4c-1.087 1.086-.761 4.839.533 6.133 2.373 2.373 3.8 1.322 3.8-2.8 0-3.212-.361-4-1.833-4-1.009 0-2.134.3-2.5.667m-59.972 4.033c-.993.257-1.631.993-1.417 1.634.608 1.823 4.156 1.366 4.532-.584.343-1.782.067-1.875-3.115-1.05"/><path fill="#1976D2" fill-opacity=".365" fill-rule="evenodd" d="M131.995 6.691c-.003 3.195-.259 10.084-.568 15.309l-.563 9.5 9.568 10.348C145.694 47.54 150 52.558 150 52.999c0 .442-4.211 4.335-9.357 8.652l-9.358 7.849-.45 44c-.248 24.2-.346 44.153-.219 44.341.208.305 54.62-45.459 73.384-61.721 4.125-3.575 7.5-7.067 7.5-7.759s-6.412-8.235-14.25-16.763S183 55.649 183 55.106s3.15-3.579 7-6.746l7-5.759v-13.8c0-7.591-.273-13.801-.608-13.801s-5.779 4.387-12.1 9.75c-6.322 5.363-12.726 10.739-14.233 11.947l-2.739 2.198-16.797-18.473c-9.238-10.16-17.185-18.713-17.66-19.007-.475-.293-.865 2.081-.868 5.276M85 49.473c-22.275 18.879-40.5 34.78-40.5 35.335s5.85 7.439 13 15.297 13.733 15.213 14.628 16.345c1.569 1.981 1.361 2.283-5.697 8.278l-7.325 6.222-.303 14.027c-.167 7.714-.049 14.026.261 14.025.309-.001 6.92-5.402 14.69-12.002s14.49-11.985 14.936-11.967c.445.019 8.46 8.533 17.81 18.922 9.35 10.388 17.338 18.923 17.75 18.966s.74-7.009.727-15.671l-.023-15.75-9.536-10.322c-5.245-5.677-9.397-10.683-9.227-11.125.17-.441 4.472-4.303 9.559-8.58l9.25-7.778V75l-17.112 14.566-17.111 14.567-7.139-7.71c-3.926-4.24-7.451-8.237-7.835-8.882-.436-.735 8.141-8.66 23-21.251 13.034-11.043 24.498-20.963 25.476-22.045 1.554-1.718 1.744-3.685 1.5-15.532l-.279-13.566zm74.265 24.881-6.234 5.146-.016 15.25c-.008 8.388.227 15.25.522 15.25s6.601-5.203 14.013-11.562c15.378-13.192 14.902-10.818 4.45-22.17l-6.5-7.061zM88.667 187.667c-.367.366-.667 10.476-.667 22.464 0 20.528.113 21.859 1.934 22.834 2.304 1.233 16.999 1.364 18.885.168.827-.524 1.2-2.292 1-4.735l-.319-3.898-6.75-.296-6.75-.295v-17.255c0-12.086-.359-17.613-1.2-18.454-1.294-1.294-5.047-1.62-6.133-.533m28 0c-.367.366-.667 10.401-.667 22.3 0 23.29.161 24.033 5.2 24.033h2.8v-22.3c0-16.011-.338-22.638-1.2-23.5-1.294-1.294-5.047-1.62-6.133-.533m18.333.626-2.5 1.264-.271 20.201c-.25 18.671-.127 20.344 1.617 22.088 2.441 2.441 9.972 3.549 14.969 2.204 9.26-2.494 13.633-9.924 13.567-23.05-.061-12.215-3.602-19.434-11.1-22.629-4.018-1.712-12.965-1.755-16.282-.078m-105.419 1.895C28.274 192.054 28 195.752 28 211.531c0 21.18.425 22.888 5.549 22.305l2.951-.336.29-8.25.291-8.25h5.337c6.224 0 7.862-1.369 7.4-6.185L49.5 207.5l-6.25-.298-6.25-.297V197h6.981c6.551 0 7.018-.149 7.589-2.421 1.417-5.649.763-6.055-10.251-6.363-9.571-.268-10.249-.154-11.738 1.972m29.319-.568c-1.097 1.322-1.4 6.003-1.4 21.614 0 23.78-.539 22.766 12.109 22.766C80.307 234 81 233.69 81 228.893V225H66v-10h6.025c5.434 0 6.114-.235 6.934-2.393.501-1.316.662-3.341.359-4.5-.488-1.865-1.284-2.107-6.935-2.107H66v-9h6.981c6.551 0 7.018-.149 7.589-2.421 1.416-5.643.756-6.055-10.182-6.362-8.472-.238-10.312-.013-11.488 1.403m111.3-.42c-.854.854-1.2 7.029-1.2 21.429 0 17.056.246 20.475 1.571 21.8 1.206 1.205 3.759 1.571 10.965 1.571 8.51 0 9.499-.197 10.514-2.093.616-1.151.848-3.176.516-4.5-.571-2.274-1.017-2.407-8.085-2.407H177v-10h5.878c6.642 0 8.448-1.294 7.944-5.69-.314-2.736-.499-2.818-7.072-3.106l-6.75-.295v-8.821l7.25-.294 7.25-.294.307-4.25.308-4.25h-10.358c-6.722 0-10.778.421-11.557 1.2m26.982.081c-1.217 1.466 1.011 12.6 5.948 29.719 3.835 13.296 4.899 15 9.37 15 2.481 0 3.866-.634 4.918-2.25 1.805-2.773 6.864-20.253 9.232-31.901 1.991-9.788 1.346-11.849-3.705-11.849-3.283 0-2.958-.849-6.477 16.919-1.461 7.38-3.001 14.346-3.42 15.481-.721 1.949-2.703-5.028-7.06-24.859-.6-2.728-1.572-5.54-2.162-6.25-1.376-1.659-5.271-1.665-6.644-.01m-56.745 8.022c-.275.716-.373 7.129-.218 14.25.276 12.738.319 12.952 2.633 13.28 4.665.66 7.211-.758 9.191-5.118 3.363-7.409 2.047-17.926-2.712-21.67-2.918-2.295-8.131-2.73-8.894-.742M103 247.5c0 5.491.363 8.394 1 8 .55-.34 1-2.59 1-5 0-4.664.846-5.88 3.41-4.896 1.115.428 1.59 1.905 1.59 4.944 0 2.384.45 4.612 1 4.952 1.453.898 1.264-8.836-.2-10.3-.66-.66-2.235-1.2-3.5-1.2-1.61 0-2.3-.582-2.3-1.941 0-1.068-.45-2.219-1-2.559-.637-.394-1 2.509-1 8m30-1.035c0 6.357.287 7.618 1.934 8.5 4.398 2.353 8.066-.073 8.066-5.336 0-3.967-1.535-5.629-5.2-5.629-2.32 0-2.8-.429-2.8-2.5 0-1.375-.45-2.5-1-2.5-.577 0-1 3.155-1 7.465m37 .535c0 4.667.417 8 1 8 .55 0 1-1.186 1-2.635v-2.635l2.073 2.635c1.139 1.449 2.799 2.635 3.687 2.635 1.233 0 .982-.66-1.06-2.791l-2.674-2.791 2.182-2.181c2.995-2.996 1.393-4.15-1.712-1.233L172 248.349v-4.675c0-2.571-.45-4.674-1-4.674-.583 0-1 3.333-1 8m45-5.559c0 2.136-.463 2.559-2.8 2.559-1.54 0-3.34.54-4 1.2-1.32 1.32-1.595 6.654-.435 8.415 1.205 1.829 5.016 2.573 7.197 1.405 1.749-.935 2.038-2.071 2.038-7.996 0-3.798-.45-7.184-1-7.524-.567-.351-1 .49-1 1.941m-175.25-.867c-.413.418-.75 3.834-.75 7.593V255l5.25-.142c5.138-.139 5.165-.155 1.25-.75l-4-.608-.5-6.843c-.275-3.763-.837-6.5-1.25-6.083M94 247.933c0 6.165.233 7.006 2.101 7.599 1.155.367 2.595.172 3.2-.433.799-.799.498-1.099-1.101-1.099-1.894 0-2.2-.548-2.2-3.93 0-3.279.373-4.004 2.25-4.373l2.25-.443-2.25-.744c-1.237-.409-2.25-1.366-2.25-2.127S95.55 241 95 241c-.571 0-1 2.978-1 6.933M52.2 245.2c-1.712 1.712-1.484 7.373.371 9.229 4.967 4.966 12.014-3.404 7.473-8.876-1.529-1.842-6.147-2.05-7.844-.353m11.8.158c0 2.735 3.972 10.777 5.007 10.138 1.96-1.212 5.662-11.496 4.138-11.496-.544 0-1.529 1.688-2.188 3.75-1.762 5.513-2.486 5.764-3.817 1.324-1.225-4.09-3.14-6.356-3.14-3.716m13.2-.158c-2.176 2.176-1.453 7.588 1.251 9.36 2.569 1.683 5.647 1.648 6.219-.07.185-.555-1.085-1.005-2.822-1-4.803.015-4.746-2.323.077-3.094 4.291-.686 4.722-1.319 3.04-4.462-1.173-2.192-5.864-2.635-7.765-.734m39.371.371c-4.42 4.421.929 12.093 6.847 9.822 2.6-.998 1.791-2.077-1.225-1.635-1.741.256-3.298-.179-4.099-1.145-1.126-1.356-.762-1.642 2.807-2.213 2.903-.464 4.099-1.143 4.099-2.328 0-3.886-5.431-5.498-8.429-2.501m29.839-.425c-.49.793.032.96 1.699.541 2.877-.722 5.856.765 4.383 2.187-.546.526-2.117 1.107-3.492 1.291-1.871.251-2.579 1.018-2.813 3.05-.252 2.185.173 2.837 2.178 3.34 4.72 1.185 6.635-.236 6.635-4.922 0-2.328-.54-4.773-1.2-5.433-1.526-1.526-6.458-1.562-7.39-.054m12.79.054c-2.176 2.176-1.453 7.588 1.251 9.36 2.488 1.63 6.549 1.204 6.549-.686 0-.546-.476-.698-1.057-.339s-2.156.377-3.5.04c-1.899-.477-2.443-1.269-2.443-3.559 0-3.291 2.755-5.431 5.592-4.342 1.182.453 1.505.292 1.013-.504-.944-1.527-5.868-1.507-7.405.03m23 0c-.66.66-1.2 2.659-1.2 4.443 0 5.211 6.093 8.36 9.12 4.713 1.213-1.462 1.115-1.565-.878-.933-2.524.801-6.242-.079-6.242-1.479 0-.506 1.8-1.208 4-1.56 2.817-.45 4-1.134 4-2.312 0-2.427-2.02-4.072-5-4.072-1.43 0-3.14.54-3.8 1.2m12.467-.533c-1.068 1.067-.769 10.333.333 10.333.55 0 1-1.977 1-4.393 0-3.135.466-4.572 1.627-5.017 2.679-1.028 4.373 1.332 4.373 6.091 0 2.704.391 4.196 1 3.819 1.309-.809 1.286-7.097-.035-9.566-1.022-1.909-6.777-2.788-8.298-1.267M54.05 246.44c-1.943 2.341-.91 7.009 1.632 7.371 3.851.548 5.319-5.698 1.891-8.046-1.551-1.062-2.182-.941-3.523.675m25.2-.778c-2.179.879-1.381 3.338 1.083 3.338 3.01 0 3.936-.971 2.536-2.658-1.174-1.414-1.6-1.494-3.619-.68m38.979.509c-1.985 1.985-1.434 2.829 1.844 2.829 2.381 0 2.998-.392 2.739-1.739-.413-2.144-2.93-2.743-4.583-1.09m17.947-.301c-.797.505-1.195 2.193-1 4.235.274 2.868.712 3.395 2.824 3.395 1.997 0 2.565-.565 2.822-2.81.177-1.546-.215-3.459-.872-4.25-1.371-1.652-1.934-1.737-3.774-.57m48.024.33c-1.945 1.945-1.396 2.8 1.8 2.8 3.233 0 4.205-2.324 1.418-3.393-2.014-.773-1.816-.809-3.218.593m25.85.24c-.657.791-1.049 2.704-.872 4.25.255 2.224.895 2.876 3.072 3.126 2.59.298 2.75.087 2.75-3.643 0-2.688-.508-4.154-1.582-4.566-2.085-.8-1.994-.823-3.368.833m-61.383 4.227c-1.518 1.518-.52 3.333 1.833 3.333 1.833 0 2.5-.533 2.5-2 0-1.951-2.841-2.825-4.333-1.333"/><path fill="#1976D2" fill-opacity=".317" fill-rule="evenodd" d="M132.011 16.332 132 32.164l9.25 10c5.088 5.5 9.25 10.386 9.25 10.858s-3.825 4.066-8.5 7.986-9.062 7.858-9.75 8.751C131.295 71 131 81.488 131 114.248c0 41.586.055 42.826 1.859 41.559C139.29 151.288 211 89.459 211 88.434c0-.693-6.516-8.387-14.479-17.097-7.964-8.71-14.376-16.119-14.25-16.463s3.266-3.21 6.979-6.367l6.75-5.741V29.324c0-10.491-.274-13.276-1.25-12.685-.687.416-6.949 5.618-13.915 11.559s-13.04 10.765-13.5 10.721c-.715-.07-9.38-9.458-30.574-33.127L132.022.5zM87.5 47.651c-20.35 17.33-38.544 32.758-40.431 34.285l-3.43 2.776 15.18 16.526C67.169 110.327 74 117.979 74 118.242s-3.375 3.304-7.5 6.758l-7.5 6.28v27.875l12.75-10.748c7.013-5.911 13.692-11.583 14.844-12.605 2.082-1.847 2.178-1.765 16.914 14.42 8.152 8.953 16.097 17.619 17.656 19.259l2.836 2.981v-31.447l-9.493-10.258-9.492-10.257 3.305-3c1.819-1.65 6.315-5.617 9.993-8.815l6.687-5.814V75.833l-2.414 1.834c-1.327 1.008-9.042 7.448-17.145 14.31L90.71 104.454l-7.832-8.477c-4.308-4.662-7.842-8.794-7.855-9.182S86.25 76.537 100 64.861l25-21.23V29.816c0-7.599-.112-13.784-.25-13.745s-16.9 14.251-37.25 31.58m71.218 26.638-5.782 5.211.282 15.643.282 15.642 14.225-12.038 14.225-12.039-8.083-8.854c-4.446-4.87-8.372-8.836-8.725-8.815s-3.244 2.384-6.424 5.25m-22.69 113.824c-1.359.543-2.815 1.527-3.234 2.187s-.77 9.658-.779 19.995L132 229.091l2.561 2.561c2.38 2.38 3.091 2.534 10.094 2.18 7.342-.371 7.631-.485 11.357-4.48 4.55-4.877 5.975-9.391 5.982-18.953.009-11.496-3.258-18.252-10.395-21.494-4.427-2.01-11.603-2.375-15.571-.792M30.2 189.2c-.858.858-1.2 7.262-1.2 22.481v21.281l2.573.646c1.415.355 2.97.249 3.454-.235s1.013-4.478 1.176-8.876l.297-7.997 6.243-.298c5.679-.27 6.298-.519 6.858-2.747 1.104-4.401-.017-5.334-6.801-5.656l-6.3-.299-.302-5.25-.303-5.25h7.018c6.097 0 7.163-.274 8.137-2.093.616-1.151.848-3.176.516-4.5-.587-2.337-.887-2.407-10.385-2.407-6.274 0-10.211.43-10.981 1.2m29.55-.12c-1.576.918-1.748 3.027-1.735 21.22.009 11.11.383 20.779.832 21.487.601.946 3.573 1.211 11.235 1L80.5 232.5v-7l-7.75-.292-7.75-.292V215h5.8c6.653 0 8.2-1.075 8.2-5.7V206H65v-9h6.965c6.044 0 7.113-.277 8.085-2.093.616-1.151.848-3.176.516-4.5-.584-2.328-.907-2.406-9.835-2.377-5.077.017-10.019.489-10.981 1.05M88 209.378c0 17.098.28 21.61 1.399 22.538.903.75 4.715 1.059 10.75.873l9.351-.289v-7l-6.75-.296-6.75-.295-.014-16.205C95.969 188.696 95.815 188 91.383 188H88zm28 .5c0 23.54.241 24.651 5.195 23.949l2.305-.327.283-20.5c.156-11.275.035-21.512-.269-22.75-.441-1.797-1.253-2.25-4.033-2.25H116zm54.606-20.342C169.243 190.9 169 194.048 169 210.38c0 13.935.349 19.715 1.265 20.968 1.08 1.477 2.726 1.688 11.25 1.441l9.985-.289.31-3.75.311-3.75H177v-10h4.918c7.153 0 8.082-.587 8.082-5.107V206h-13v-9h6.378c7.171 0 8.959-1.205 8.444-5.69l-.322-2.81-9.644-.285c-7.79-.23-9.952.024-11.25 1.321m27.409-.567c-1.306.826-1.272 1.97.278 9.501 2.88 13.994 8.643 32.936 10.429 34.28.913.688 2.613 1.25 3.778 1.25 3.928 0 5.424-2.449 8.885-14.535 5.094-17.794 6.865-27.13 5.596-29.501-1.105-2.065-5.406-2.703-6.482-.962-.341.551-1.93 7.414-3.532 15.25-3.676 17.979-3.953 19.096-4.577 18.471-.282-.282-2.064-7.198-3.96-15.368s-3.883-15.867-4.417-17.105c-1.014-2.352-3.473-2.877-5.998-1.281M140 210.481c0 14.256.035 14.49 2.289 15.055 6.582 1.652 11.701-4.566 11.707-14.221.007-10.372-3.281-15.315-10.185-15.315H140zM103.307 247.5c.006 6.64.108 7.151.6 3.009.45-3.792 1.039-5.076 2.449-5.344 2.625-.498 3.899 1.146 4.699 6.065l.695 4.27.125-4.628c.143-5.282-1.524-7.363-5.317-6.638-2.03.388-2.523.019-2.856-2.133-.221-1.43-.399.999-.395 5.399m30.443-6.929c-.897.912-1.005 10.601-.143 12.847.726 1.893 6.417 2.158 8.193.382 1.731-1.731 1.475-6.382-.458-8.315-.947-.947-2.639-1.47-3.948-1.22-1.829.35-2.351-.055-2.592-2.01-.166-1.346-.64-2.104-1.052-1.684M170 247.5c0 4.333.422 7.5 1 7.5.55 0 1-1.209 1-2.687v-2.687l2.99 2.864c1.644 1.575 3.243 2.611 3.552 2.301s-.585-1.467-1.989-2.571c-3.074-2.417-3.219-3.793-.553-5.22 1.1-.589 2-1.589 2-2.222 0-.634-1.35.141-3 1.722l-3 2.874v-4.687c0-2.578-.45-4.687-1-4.687-.578 0-1 3.167-1 7.5m45-5.5c0 1.451-.667 2-2.429 2-3.207 0-5.571 2.492-5.571 5.871 0 3.613 1.685 5.129 5.7 5.129h3.3v-7.5c0-4.125-.225-7.5-.5-7.5s-.5.9-.5 2m-174.804 5.75L40 255l4.25-.168 4.25-.168-3.706-.39-3.705-.389-.349-6.693-.348-6.692zm54.097-.25c.197 6.673.324 7.011 2.707 7.24 2.464.237 2.467.226.25-.718-1.728-.735-2.25-1.777-2.25-4.49 0-2.975.355-3.543 2.25-3.602 2.059-.065 2.087-.134.325-.825-1.059-.415-2.277-1.621-2.707-2.68-.462-1.137-.697.939-.575 5.075m-41.722-1.929c-1.859 1.86-2.07 6.53-.371 8.229.66.66 2.37 1.2 3.8 1.2 3.341 0 5-1.701 5-5.129 0-3.152-2.315-5.871-5-5.871-1.021 0-2.564.707-3.429 1.571M64 244.75c0 1.986 3.915 10.25 4.856 10.25 1.115 0 4.173-7.333 4.074-9.77-.039-.952-.72.07-1.512 2.27a490 490 0 0 1-2.012 5.5c-.365.959-1.243-.253-2.435-3.363-1.933-5.045-2.971-6.752-2.971-4.887m13.571.821c-1.859 1.86-2.07 6.53-.371 8.229.66.66 2.797 1.133 4.75 1.05 3.391-.143 3.415-.169.55-.588-3.974-.581-6.098-2.266-4.297-3.408.713-.453 2.508-.83 3.988-.839 3.525-.02 4.434-1.667 2.252-4.078-2.122-2.345-4.753-2.485-6.872-.366m39.426-.068c-.686.827-1.247 2.625-1.247 3.997 0 3.584 2.027 5.52 5.622 5.368l3.128-.131-3.5-.619c-4.876-.861-4.707-3.518.25-3.928 2.777-.23 3.75-.762 3.75-2.05 0-3.852-5.492-5.661-8.003-2.637m30.637-.719c-.267.431.707.768 2.163.75 1.739-.022 2.769.567 2.999 1.716.253 1.262-.297 1.754-1.973 1.765-3.284.022-5.08 1.412-4.658 3.605.282 1.465 1.242 1.88 4.349 1.88 3.754 0 4.004-.186 4.296-3.204.418-4.325-1.327-7.296-4.286-7.296-1.323 0-2.624.353-2.89.784m12.021 1.045c-1.9 2.1-2.103 4.465-.62 7.237.768 1.434 1.995 1.893 4.75 1.774 3.69-.159 3.693-.163.466-.563-3.603-.448-5.435-2.856-4.601-6.046.648-2.477 2.862-3.521 5.616-2.647 1.314.418 1.753.256 1.3-.477-1.065-1.723-5.078-1.304-6.911.722m22.916-.258c-1.813 1.814-2.021 4.72-.536 7.495.763 1.425 2.014 1.899 4.75 1.802l3.715-.131-3.5-.619c-4.647-.821-4.698-3.443-.079-4.118 3.963-.579 4.844-2.092 2.552-4.384-2.048-2.048-4.88-2.066-6.902-.045m12.629-.371c-1.414 1.414-1.632 9.8-.255 9.8.52 0 1.083-2.137 1.25-4.75.277-4.319.532-4.75 2.805-4.75 2.254 0 2.558.491 3.093 5l.593 5 .157-5.143c.118-3.869-.235-5.293-1.425-5.75-2.474-.949-4.908-.717-6.218.593m-142.386 2.309c-1.527 3.35-.127 5.869 3.502 6.304 2.128.255 2.741-.192 3.296-2.405 1.389-5.533-4.512-8.917-6.798-3.899m25.218-.57c-1.018 1.904-.828 2.061 2.506 2.061 2.897 0 3.543-.345 3.275-1.75-.492-2.584-4.45-2.796-5.781-.311m40.168-.739c-2.227 2.227-1.316 3.412 2.3 2.99 1.925-.225 3.5-.72 3.5-1.099 0-1.078-2.28-3.091-3.5-3.091-.605 0-1.64.54-2.3 1.2m17.467-.533c-.367.366-.667 2.391-.667 4.5 0 3.431.265 3.833 2.521 3.833 3.268 0 5.211-3.764 3.547-6.874-1.097-2.049-4.021-2.839-5.401-1.459m47.365 1.272c-1.018 1.904-.828 2.061 2.506 2.061 2.897 0 3.543-.345 3.275-1.75-.492-2.584-4.45-2.796-5.781-.311m25.782.57c-1.54 3.379-.12 5.871 3.598 6.313 2.618.312 2.699.176 2.399-4-.259-3.601-.685-4.375-2.551-4.64-1.621-.231-2.574.413-3.446 2.327M147.5 251c-.994 1.608.425 3 3.059 3 1.774 0 2.441-.546 2.441-2s-.667-2-2.441-2c-1.343 0-2.719.45-3.059 1"/></svg>