<svg xmlns="http://www.w3.org/2000/svg" width="256" height="256"><path fill="#1976D2" fill-opacity=".016" fill-rule="evenodd" d="M0 128.004v128.004l128.25-.254 128.25-.254.254-127.75L257.008 0H0zm.485.496c0 70.4.119 99.053.265 63.672s.146-92.98 0-128S.485 58.1.485 128.5"/><path fill="#1976D2" fill-opacity=".41" fill-rule="evenodd" d="M133 23.687v24.149l12.146 13.332a7245 7245 0 0 1 13.995 15.391c1.833 2.041 1.721 2.169-12.525 14.24l-14.375 12.181-.743 64.392c-.409 35.416-.571 64.909-.36 65.542.362 1.087 34.991-27.698 95.221-79.15l26.859-22.944-2.929-3.16c-1.61-1.738-10.509-11.485-19.775-21.66s-18.138-19.888-19.717-21.585l-2.869-3.085 10.395-8.705 10.395-8.706.526-21.209c.289-11.666.384-21.365.212-21.555-.171-.189-9.902 7.8-21.624 17.754s-21.612 17.984-21.979 17.844c-.367-.139-11.108-11.728-23.868-25.753S137.483 4.159 135.892 2.519L133-.462zm-69.184 49.47c-33.376 28.239-60.714 51.587-60.75 51.885s10.004 11.58 22.312 25.071l22.378 24.528-11.378 9.683L25 194.006v21.056c0 13.991.341 20.846 1.015 20.429.558-.345 10.571-8.732 22.25-18.638L69.5 198.842l8.719 9.329c4.796 5.131 16.496 17.955 26 28.498 9.505 10.542 17.619 19.205 18.031 19.25.412.044.743-10.606.735-23.669l-.015-23.75-13.985-15.263C101.293 184.842 95 177.825 95 177.643s6.525-5.855 14.5-12.609l14.5-12.279v-20.877c0-11.483-.24-20.878-.534-20.878-.293 0-11.564 9.338-25.046 20.75-13.483 11.412-24.888 20.882-25.345 21.043-.969.341-23.214-23.93-22.832-24.912.141-.363 16.745-14.648 36.898-31.744l36.64-31.085.707-18.276c.388-10.052.55-19.78.359-21.619l-.347-3.343zm110.151 37.137-8.467 7.295-.269 22.74-.269 22.739 20.46-17.284c11.253-9.506 20.374-17.565 20.269-17.909-.297-.972-22.123-24.855-22.724-24.865-.293-.006-4.343 3.273-9 7.284"/><path fill="#1976D2" fill-opacity=".298" fill-rule="evenodd" d="M133 24.088v23.088l13.75 15.004c7.563 8.252 13.845 15.525 13.962 16.162S154.693 84.675 147.078 91l-13.846 11.5-.669 8c-.368 4.4-.532 33.691-.366 65.091l.303 57.092 19.5-16.444c10.725-9.045 36.761-31.136 57.857-49.092s39.284-33.381 40.417-34.277l2.06-1.63-2.193-2.788c-1.206-1.533-11.181-12.583-22.167-24.554-10.986-11.972-19.945-22.133-19.909-22.582s4.761-4.79 10.5-9.646L229 62.839V42.265c0-19.491-.092-20.497-1.75-19.099-.963.812-10.665 9.03-21.56 18.262-10.896 9.231-19.924 16.624-20.062 16.428C184.504 56.26 133.784 1 133.443 1c-.244 0-.443 10.39-.443 23.088M63.321 74.17 3.142 125.247l20.679 22.664c11.373 12.465 21.498 23.617 22.498 24.781 1.804 2.1 1.729 2.194-9.118 11.363l-10.937 9.246-.5 20.599c-.275 11.33-.353 20.769-.173 20.976.305.351 7.412-5.526 33.542-27.739l10.633-9.038 25.867 28.393 25.867 28.392.638-9.192c.351-5.055.689-15.303.75-22.772l.112-13.58-14.441-15.92c-7.942-8.756-14.129-16.188-13.75-16.515.38-.327 6.879-5.862 14.441-12.3L123 152.9v-20.572c0-19.358-.102-20.492-1.728-19.2-.951.754-12.275 10.287-25.166 21.184l-23.437 19.811-2.152-2.311c-1.183-1.272-6.531-7.114-11.885-12.983l-9.733-10.672 13.86-11.828c7.623-6.506 24.508-20.829 37.523-31.829l23.663-20 .027-20.75c.016-11.413-.084-20.729-.222-20.703S96.419 46.078 63.321 74.17M174 109.476l-8.5 7.385-.5 23.071c-.275 12.689-.231 23.07.097 23.069.329 0 9.691-7.713 20.804-17.139 14.01-11.883 20.032-17.595 19.636-18.626-.597-1.556-21.665-25.019-22.537-25.099-.275-.025-4.325 3.278-9 7.339"/><path fill="#1976D2" fill-opacity=".134" fill-rule="evenodd" d="M116.331 31.194c-.693 1.089-4.611 4.413-12.129 10.291-.714.558-2.064 1.715-3 2.57S97.475 47.149 95 49.029s-4.725 3.664-5 3.964-3.425 2.924-7 5.834C72.785 67.14 70.251 69.265 66.245 72.878c-2.06 1.858-5.305 4.558-7.212 6S54.817 82.175 53.901 83s-3.406 2.933-5.533 4.685c-12.881 10.607-43.354 36.483-43.784 37.18-.283.456 9.258 11.533 21.201 24.614S47.5 173.843 47.5 174.554s-4.838 5.399-10.75 10.419L26 194.1v19.95c0 10.973.205 19.95.456 19.95.569 0 29.184-24.16 35.09-29.626 1.263-1.169 3.691-3.118 5.395-4.332l3.097-2.205 4.731 4.985c7.882 8.305 15.23 16.208 25.731 27.675 17.386 18.984 19.342 20.994 19.89 20.446.294-.294.587-9.878.65-21.297l.114-20.761-7.323-8.071c-4.027-4.439-7.852-8.8-8.5-9.692s-3.707-4.272-6.799-7.51l-5.621-5.888 3.794-3.482c2.087-1.914 5.969-5.34 8.625-7.611 2.657-2.272 7.28-6.408 10.274-9.191l5.443-5.06-.274-18.272-.273-18.273-5 3.789c-2.75 2.083-5.45 4.296-6 4.917s-3.25 2.89-6 5.042c-2.75 2.153-8.15 6.541-12 9.751a1422 1422 0 0 1-10.279 8.502 201 201 0 0 0-5.857 4.965l-2.576 2.3-4.644-5.261c-2.554-2.893-6.23-6.854-8.168-8.8-1.939-1.947-5.258-5.711-7.377-8.363l-3.853-4.824 4.026-3.676c2.215-2.023 5.656-5.027 7.649-6.677 1.992-1.65 5.119-4.35 6.949-6 7.377-6.651 14.94-13.051 16.442-13.912.874-.502 2.665-2.189 3.978-3.75S90.535 91 90.971 91c.437 0 2.534-1.694 4.661-3.764 2.128-2.069 7.22-6.682 11.317-10.25s8.935-7.881 10.75-9.587L121 64.298l-.074-12.399c-.041-6.819-.378-14.387-.75-16.818-.692-4.523-2.364-6.214-3.845-3.887M122.061 59c0 2.855.188 3.178 1.019 1.75.692-1.189.692-2.311 0-3.5-.831-1.428-1.019-1.105-1.019 1.75m12.989 80.5c-.101 1.1-.217 9.2-.257 18-.055 11.95-.261 14.481-.814 10-.614-4.972-.676-4.474-.36 2.904.21 4.897.381 20.122.381 33.834v24.93l3.75-3.074a1271 1271 0 0 0 6.625-5.471l2.875-2.397-1.588-11.363c-5.588-39.968-10.351-70.205-10.612-67.363m-2.127 13.25c-.042.412-.218 1.477-.391 2.366s.079 2.239.561 3c.593.937.881.172.892-2.366.008-2.062-.21-3.75-.485-3.75s-.534.338-.577.75"/></svg>