<svg xmlns="http://www.w3.org/2000/svg" width="800.012" height="793.179" viewBox="0 0 800.012 793.179"><path d="M598.664 584.307c-25.305 0-49.858-4.957-72.977-14.737-22.325-9.442-42.374-22.959-59.588-40.173-17.215-17.214-30.731-37.264-40.175-59.589-9.778-23.119-14.737-47.672-14.737-72.977s4.96-49.858 14.737-72.977c9.443-22.326 22.96-42.375 40.174-59.59 17.215-17.214 37.264-30.73 59.588-40.173 23.12-9.779 47.673-14.737 72.978-14.737s49.858 4.957 72.977 14.737c22.326 9.442 42.375 22.959 59.589 40.173s30.73 37.264 40.174 59.59c9.778 23.119 14.737 47.672 14.737 72.977 0 25.304-4.959 49.858-14.737 72.977-9.442 22.325-22.96 42.375-40.174 59.59-17.214 17.213-37.263 30.73-59.589 40.172-23.119 9.78-47.672 14.737-72.977 14.737" style="fill:#1d828e;fill-opacity:1;stroke-width:.44239303"/><path d="M647.769 355.744c-4.043.266-7.801-2.227-9.013-6.094-1.046-3.34-2.674-6.401-4.911-9.254-3.7-4.718-8.67-8.491-14.765-11.213-3.74-1.668-7.854-2.845-12.29-3.517v61.845l4.213.978c17.733 4.073 30.122 9.448 37.859 16.43 8.17 7.374 12.314 17.725 12.314 30.768v.119c0 10.14-2.65 19.157-7.88 26.798-5.183 7.57-12.56 13.477-21.926 17.56-7.174 3.127-15.421 5.039-24.58 5.7v11.348a8.674 8.674 0 0 1-8.674 8.674 8.674 8.674 0 0 1-8.675-8.674v-11.58c-8.013-.839-15.424-2.733-22.09-5.651-9.525-4.168-17.234-10.151-22.91-17.782-3.627-4.871-6.284-10.295-7.95-16.21-1.547-5.493 2.379-11.012 8.08-11.305 4.178-.217 7.903 2.527 9.023 6.56a31.9 31.9 0 0 0 5.346 10.799c3.872 5.13 9.253 9.203 15.998 12.107 4.346 1.873 9.206 3.171 14.503 3.878V401.6l-1.008-.237c-17.037-4.002-29.116-9.423-36.93-16.574-8.229-7.526-12.401-17.748-12.401-30.383v-.239c0-9.253 2.601-17.533 7.736-24.61 5.006-6.899 12.02-12.377 20.85-16.283 6.486-2.867 13.781-4.673 21.753-5.39V296.45a8.675 8.675 0 0 1 17.349 0v11.598c7.225.825 13.96 2.645 20.084 5.43 8.795 4.004 15.998 9.61 21.412 16.666a46.2 46.2 0 0 1 7.337 13.935c1.791 5.532-2.037 11.284-7.84 11.665zm-40.98 112.608c6.467-.56 12.194-1.892 17.087-3.973 6.446-2.742 11.207-6.466 14.554-11.385 3.312-4.87 4.921-10.452 4.921-17.07v-.118c0-7.967-2.341-13.907-7.157-18.16-5.328-4.706-15.223-8.74-29.403-11.992zM589.442 325.43c-5.271.587-10.015 1.776-14.156 3.55-5.923 2.54-10.545 6.029-13.738 10.376-3.11 4.229-4.62 9.073-4.62 14.81v.239c0 7.658 2.365 13.488 7.233 17.82 4.95 4.407 13.445 8.174 25.281 11.214z" style="fill:#fff;stroke-width:.44239303"/><path d="m385.154 547.855-11.366-12.176H482.92v-15.315H373.788l11.366-12.176-10.143-10.797-28.776 30.63 28.776 30.631z" style="fill:#1d828e;fill-opacity:1;stroke-width:7.42218018"/><path d="M201.375 583.378c-25.305 0-49.86-4.96-72.977-14.737-22.326-9.443-42.375-22.96-59.59-40.175-17.213-17.214-30.73-37.263-40.173-59.588-9.78-23.12-14.737-47.672-14.737-72.977s4.957-49.858 14.737-72.977c9.442-22.327 22.959-42.375 40.173-59.589s37.264-30.732 59.589-40.175c23.119-9.778 47.672-14.736 72.978-14.736s49.857 4.958 72.976 14.736c22.326 9.443 42.375 22.96 59.59 40.174 17.214 17.214 30.73 37.263 40.172 59.589 9.78 23.119 14.737 47.672 14.737 72.978s-4.957 49.858-14.736 72.977c-9.442 22.325-22.96 42.374-40.174 59.588-17.214 17.215-37.263 30.731-59.589 40.174-23.119 9.78-47.671 14.738-72.976 14.738m0-357.364c-22.94 0-45.186 4.49-66.125 13.347-20.23 8.556-38.398 20.806-54.004 36.411s-27.855 33.774-36.412 54.004c-8.856 20.939-13.346 43.185-13.346 66.125s4.49 45.186 13.346 66.125c8.557 20.228 20.807 38.397 36.412 54.003 15.605 15.605 33.774 27.855 54.004 36.412 20.939 8.856 43.185 13.347 66.125 13.347s45.185-4.49 66.125-13.347c20.228-8.557 38.397-20.808 54.003-36.412 15.605-15.605 27.855-33.774 36.41-54.003 8.858-20.94 13.348-43.187 13.348-66.125 0-22.94-4.49-45.186-13.347-66.125-8.556-20.229-20.806-38.399-36.41-54.004-15.607-15.605-33.776-27.855-54.004-36.411-20.94-8.857-43.187-13.347-66.125-13.347" style="fill:#ccc;fill-opacity:1;stroke-width:.44239303"/><g style="font-style:normal;font-variant:normal;font-weight:400;font-stretch:normal;font-size:192.17172241px;line-height:1.25;font-family:Arial;-inkscape-font-specification:Arial;text-align:center;text-anchor:middle;opacity:1;fill:#1d828e;fill-opacity:1;stroke:none;stroke-width:4.00357771;stroke-opacity:1"><path aria-label="Bs" transform="translate(-1738.674 -514.263)scale(.96547)" style="fill:#1d828e;fill-opacity:1;stroke-width:4.00357771" d="M1907.954 1010.369v-137.56h51.608q15.764 0 25.242 4.222 9.57 4.129 14.92 12.855 5.441 8.633 5.441 18.11 0 8.82-4.785 16.609-4.786 7.788-14.45 12.574 12.48 3.66 19.142 12.48 6.756 8.82 6.756 20.83 0 9.666-4.13 18.017-4.034 8.257-10.04 12.761t-15.106 6.85q-9.009 2.252-22.145 2.252zm18.203-79.759h29.746q12.104 0 17.359-1.595 6.944-2.064 10.416-6.85 3.565-4.785 3.565-12.01 0-6.85-3.284-12.011-3.284-5.255-9.383-7.132-6.1-1.97-20.925-1.97h-27.494zm0 63.526h34.25q8.82 0 12.386-.657 6.287-1.126 10.51-3.753t6.943-7.601q2.721-5.067 2.721-11.635 0-7.695-3.941-13.325-3.941-5.724-10.979-7.976-6.943-2.345-20.08-2.345h-31.81zm101.998-13.512 16.702-2.628q1.408 10.04 7.788 15.39 6.475 5.348 18.016 5.348 11.636 0 17.266-4.692 5.63-4.786 5.63-11.166 0-5.724-4.973-9.008-3.472-2.252-17.266-5.724-18.579-4.692-25.804-8.07-7.131-3.472-10.885-9.477-3.66-6.1-3.66-13.418 0-6.663 3.003-12.293 3.097-5.723 8.352-9.477 3.94-2.909 10.697-4.88 6.85-2.064 14.638-2.064 11.729 0 20.55 3.378 8.914 3.379 13.136 9.196 4.223 5.724 5.818 15.389l-16.515 2.252q-1.126-7.694-6.568-12.01-5.349-4.317-15.201-4.317-11.636 0-16.609 3.847t-4.973 9.008q0 3.284 2.064 5.912 2.064 2.72 6.475 4.504 2.533.938 14.92 4.316 17.921 4.786 24.96 7.882 7.13 3.003 11.165 8.82t4.035 14.45q0 8.446-4.973 15.953-4.88 7.412-14.169 11.541-9.29 4.035-21.019 4.035-19.423 0-29.651-8.07-10.134-8.07-12.95-23.927"/></g><path d="m416.05 247.616 10.985 12.176H321.567v15.315h105.468l-10.985 12.176 9.803 10.797 27.81-30.63-27.81-30.631z" style="fill:#ccc;fill-opacity:1;stroke-width:7.29652405"/></svg>