<svg xmlns="http://www.w3.org/2000/svg" xmlns:xlink="http://www.w3.org/1999/xlink" width="1024" height="1024" viewBox="0 0 270.933 270.933"><defs><linearGradient xlink:href="#a" id="c" gradientUnits="userSpaceOnUse" gradientTransform="matrix(10.75997 .07137 -.06867 10.35217 -284.15 -202.225)" x1="31.446" y1="36.266" x2="54.545" y2="32.798" spreadMethod="pad"/><linearGradient id="a"><stop style="stop-color:#764ba2;stop-opacity:1" offset="0"/><stop style="stop-color:#667eea;stop-opacity:1" offset="1"/></linearGradient><linearGradient xlink:href="#a" id="b" gradientUnits="userSpaceOnUse" gradientTransform="matrix(10.75997 .07137 -.06867 10.35217 -284.15 -202.225)" x1="31.446" y1="36.266" x2="54.545" y2="32.798" spreadMethod="pad"/></defs><g style="font-style:normal;font-variant:normal;font-weight:400;font-stretch:normal;font-size:47.31644821px;line-height:1.25;font-family:Arial;-inkscape-font-specification:Arial;text-align:center;text-anchor:middle;opacity:1;fill:#754fa8;fill-opacity:1;stroke:#f53636;stroke-width:.98575932;stroke-opacity:1"><path d="M-14.9 124.313h-7.146v-13.06q0-1.798 1.041-2.791 1.041-1.041 2.792-1.041.994 0 1.893.142.946.142 1.42.236zm-3.408 1.088v-5.773h14.243q.284.473.52 1.23.237.71.237 1.562 0 1.514-.71 2.271-.662.71-1.845.71zm.095-12.208v-5.772h15.756q.284.425.521 1.183.237.757.237 1.608 0 1.514-.71 2.271-.663.71-1.846.71zm-3.833 8.328h7.193v14.526q-.426.142-1.373.237-.946.142-1.94.142-2.129 0-3.028-.757-.852-.758-.852-2.603zm24.953-5.489h7.002v19.778q-.426.095-1.325.237-.851.142-1.845.142-1.75 0-2.792-1.04-1.04-1.042-1.04-2.793Zm7.002 11.45H2.907v-16.229q0-1.798 1.04-2.791 1.041-1.041 2.792-1.041.994 0 1.845.142.9.142 1.325.236zm-3.17-3.17v-5.677h14.29q.284.473.52 1.183t.237 1.561q0 1.514-.71 2.224-.662.71-1.798.71zm0 11.877v-5.725H22.59q.284.426.52 1.183t.237 1.608q0 1.515-.71 2.224-.662.71-1.798.71zm0-23.09v-5.678h15.615q.33.425.52 1.135.237.71.237 1.562 0 1.514-.663 2.27-.662.71-1.845.71zm21.951 3.075h7.192v19.636l-3.36.379q-1.75 0-2.79-1.04-1.042-1.042-1.042-2.793zm3.833 20.015v-5.867H47.38q.331.473.568 1.23.237.71.237 1.609 0 1.514-.663 2.271-.662.757-1.845.757zm3.36-11.025H28.69v-17.838q.473-.095 1.42-.237.993-.142 1.892-.142 2.082 0 2.981.71.9.71.9 2.697zm16.927-9.084h7.193v19.967q-.426.142-1.372.237-.947.142-1.94.142-2.13 0-3.029-.757-.851-.758-.851-2.65zm7.193 9.084H52.81v-17.838q.473-.095 1.42-.237.993-.142 1.939-.142 2.035 0 2.934.71t.899 2.697zm25.452-3.406q0 4.542-2.271 6.86-2.224 2.319-5.962 2.319-.804 0-1.703-.047-.9-.095-1.609-.237V112.72q.804-.095 1.561-.142.805-.094 1.657-.094 2.46 0 4.305 1.04 1.893.994 2.934 3.029 1.088 2.034 1.088 5.205m7.429-.142q0-5.063-2.035-8.375-2.034-3.313-5.678-4.921-3.596-1.656-8.47-1.656-1.797 0-3.974.189-2.176.19-4.07.804-.85.331-1.371.852-.52.473-.52 1.42v22.617q0 2.27 2.46 3.17 1.845.662 4.116.852 2.271.236 3.833.236 4.731 0 8.233-1.656 3.549-1.703 5.489-5.063 1.987-3.36 1.987-8.47m5.21-5.583h7.003v19.778q-.426.095-1.325.237-.852.142-1.845.142-1.751 0-2.792-1.04-1.041-1.042-1.041-2.793zm7.003 11.45h-7.003v-16.229q0-1.798 1.04-2.791 1.042-1.041 2.793-1.041.993 0 1.845.142.899.142 1.325.236zm-3.17-3.17v-5.677h14.29q.283.473.52 1.183.236.71.236 1.561 0 1.514-.71 2.224-.662.71-1.798.71zm0 11.877v-5.725h15.85q.284.426.521 1.183t.237 1.608q0 1.515-.71 2.224-.663.71-1.798.71zm0-23.09v-5.678h15.614q.331.425.52 1.135.237.71.237 1.562 0 1.514-.662 2.27-.663.71-1.846.71zm37.943 22.191q-.567.473-1.797.852-1.23.378-2.697.378-1.657 0-2.934-.52t-1.703-1.42q-.71-1.372-1.657-3.596-.899-2.271-1.987-5.063l-2.13-5.82q-1.04-3.028-1.939-5.961t-1.561-5.347q.567-.568 1.656-1.041 1.088-.52 2.365-.52 1.562 0 2.508.662.947.662 1.372 2.366 1.467 5.015 2.934 9.652 1.467 4.59 3.123 9.463h.236q.994-3.075 1.988-6.624 1.04-3.549 2.034-7.287 1.041-3.785 1.94-7.428.71-.331 1.562-.568.851-.237 1.845-.237 1.562 0 2.603.71 1.088.663 1.088 2.224 0 .946-.52 2.934-.474 1.94-1.326 4.542-.804 2.555-1.798 5.3-.946 2.696-1.94 5.204-.993 2.508-1.892 4.4-.852 1.893-1.372 2.745" style="font-style:normal;font-variant:normal;font-weight:700;font-stretch:normal;font-family:&quot;Baloo Bhaijaan 2&quot;;-inkscape-font-specification:&quot;Baloo Bhaijaan 2 Bold&quot;;fill:#754fa8;fill-opacity:1;stroke:none;stroke-width:.98575932" transform="matrix(1.153 0 0 1.56708 70.067 26.009)" aria-label="FELIDEV" stroke="none"/></g><g style="font-style:normal;font-variant:normal;font-weight:400;font-stretch:normal;font-size:17.87337494px;line-height:1.25;font-family:Arial;-inkscape-font-specification:Arial;text-align:center;text-anchor:middle;opacity:1;fill:#754fa8;fill-opacity:1;stroke:#f53636;stroke-width:.3723619;stroke-opacity:1"><path d="M-10.807 166.44h1.465v6.202l-.679.143q-.34 0-.572-.215-.214-.232-.214-.572zm.786 6.345v-1.251h5.809q.09.071.143.232.054.16.054.357 0 .304-.161.483t-.43.179zm.68-5.273h-1.466v-5.559q.089-.035.268-.071.196-.054.41-.054.394 0 .59.161.197.143.197.5zm14.923 1.144q0 1.323-.5 2.306-.501.983-1.413 1.519-.911.536-2.145.536t-2.162-.536q-.912-.536-1.412-1.52-.5-.982-.5-2.305 0-1.34.5-2.306.518-.983 1.43-1.519.93-.536 2.144-.536 1.216 0 2.127.536.912.536 1.412 1.52.519.964.519 2.305m-4.058-3.182q-1.197 0-1.912.858-.697.84-.697 2.324 0 1.501.68 2.341.696.84 1.93.84 1.215 0 1.894-.84.697-.858.697-2.341t-.697-2.324q-.68-.858-1.895-.858m12.453-1.108q.304 0 .483.161.197.161.197.465 0 .232-.197.876-.197.643-.518 1.537-.322.893-.715 1.876-.376.966-.787 1.877-.393.894-.732 1.555-.09.072-.322.125-.215.054-.465.054-.304 0-.536-.107-.232-.09-.322-.268-.196-.358-.518-1.037-.304-.697-.661-1.573t-.733-1.805q-.358-.947-.662-1.805-.303-.876-.5-1.537.125-.18.34-.286.214-.108.429-.108.321 0 .5.161t.304.536l1.108 3.2q.143.41.375 1.018l.465 1.216q.232.608.375 1.019h.072q.715-1.806 1.34-3.557.626-1.77 1.073-3.45.232-.143.607-.143m3.027 5.201-.072-1.126 5.398-.732q-.071-.983-.679-1.609-.608-.643-1.68-.643-1.108 0-1.841.804-.715.786-.715 2.27v.393q.125 1.43.93 2.18.822.733 2.234.733.75 0 1.358-.25t.965-.536q.197.125.304.304.125.16.125.375 0 .34-.393.644-.375.286-1.019.464-.625.179-1.412.179-1.376 0-2.395-.5-1-.5-1.555-1.484-.536-1-.536-2.43 0-1.02.286-1.806.304-.804.822-1.358.536-.554 1.269-.84.733-.304 1.59-.304 1.091 0 1.913.465.84.464 1.305 1.304.483.822.483 1.895 0 .393-.18.572-.178.16-.5.196zm12.346-1.501h1.43v2.467q0 .715.41 1.018.412.286 1.127.286.304 0 .68-.107.374-.107.625-.25.107.107.196.268.09.16.09.375 0 .394-.465.644t-1.287.25q-1.251 0-2.037-.554-.769-.554-.769-1.841zm.733-2.18v-1.18h3.628q.054.071.107.232.054.161.054.34 0 .286-.143.447-.143.16-.393.16zm.697 2.716h-1.43v-6.47q.09-.036.268-.071.197-.054.411-.054.375 0 .554.16.197.144.197.483zm12.352.626h-1.43v-1.644q0-1.073-.608-1.591-.59-.519-1.537-.519-.697 0-1.304.269-.59.268-1.001.643l-.268-1.162q.429-.304 1.126-.607.715-.322 1.644-.322 1.483 0 2.43.804t.948 2.449zm-7.131-1.162h1.43v4.683q-.09.036-.269.071-.178.054-.393.054-.375 0-.572-.143-.196-.16-.196-.5zm5.701.018 1.43.018v4.647q-.09.036-.286.071-.179.054-.375.054-.394 0-.59-.143-.179-.16-.179-.5zm-4.272.68H36v-7.561q.09-.036.269-.072.196-.053.41-.053.376 0 .555.16.196.143.196.483zm8.897.803-.071-1.126 5.398-.732q-.072-.983-.68-1.609-.607-.643-1.68-.643-1.108 0-1.84.804-.715.786-.715 2.27v.393q.125 1.43.929 2.18.822.733 2.234.733.75 0 1.358-.25t.966-.536q.196.125.303.304.126.16.126.375 0 .34-.394.644-.375.286-1.018.464-.626.179-1.412.179-1.377 0-2.395-.5-1.001-.5-1.555-1.484-.537-1-.537-2.43 0-1.02.286-1.806.304-.804.823-1.358.536-.554 1.269-.84.732-.304 1.59-.304 1.09 0 1.913.465.84.464 1.304 1.304.483.822.483 1.895 0 .393-.179.572-.178.16-.5.196zm16.011-5.272q1.108 0 1.983.482.894.465 1.395 1.43.518.965.518 2.449 0 1.501-.536 2.466-.519.966-1.448 1.43-.93.465-2.163.465-.876 0-1.59-.214-.698-.215-1.144-.465-.376-.25-.519-.465-.143-.214-.143-.59v-5.952h1.43v5.952q.268.197.787.376.518.178 1.18.178 1.215 0 1.947-.768.751-.769.751-2.413 0-1.662-.75-2.413-.751-.769-1.913-.769-.715 0-1.269.286-.554.269-.912.626l-.268-1.162q.394-.304 1.055-.607.661-.322 1.609-.322m-2.217 1.322h-1.43v-4.414q.09-.036.268-.072.197-.053.412-.053.375 0 .554.16.196.143.196.483zm11.328 6.238q.75 0 1.233-.143.5-.16.715-.304v-2.591l-2.216.232q-.93.072-1.376.411-.447.34-.447.983 0 .662.518 1.037.536.375 1.573.375m-.018-7.56q1.555 0 2.467.697.911.697.911 2.198v4.236q0 .394-.16.608-.144.197-.447.375-.43.233-1.144.43-.715.196-1.609.196-1.68 0-2.61-.661-.911-.662-.911-1.913 0-1.162.769-1.77.786-.625 2.162-.75l2.538-.25v-.5q0-.894-.536-1.305-.536-.412-1.448-.412-.733 0-1.412.215-.661.214-1.18.483-.142-.126-.267-.286-.108-.18-.108-.358 0-.465.519-.715.482-.25 1.108-.375.643-.143 1.358-.143m9.796 1.197q-1.216 0-2.02.823-.804.822-.804 2.359 0 1.519.768 2.341.787.822 2.056.822.75 0 1.25-.196.501-.215.894-.483.197.107.322.268t.125.394q0 .5-.75.857-.733.34-1.841.34-1.234 0-2.217-.465-.965-.482-1.519-1.447t-.554-2.431q0-1.448.572-2.413.572-.983 1.537-1.466.983-.5 2.145-.5 1.108 0 1.823.375.733.376.733.858 0 .215-.125.375-.125.161-.322.25-.393-.267-.876-.464-.465-.197-1.197-.197m6.926 3.521-.894-.697 4.075-3.95q.43.018.662.215.25.179.25.482 0 .25-.161.447-.143.197-.429.43zm-.93-.464 1.001-.59 4.54 4.075q-.036.393-.25.626-.197.232-.536.232-.268 0-.5-.143-.215-.143-.448-.375zm-1.233-.554 1.43.214v4.54q-.09.036-.268.071-.179.054-.393.054-.376 0-.572-.143-.197-.16-.197-.5zm1.43.911-1.43-.214v-7.49q.09-.035.268-.07.197-.054.411-.054.376 0 .554.16.197.143.197.483zm7.57.661-.071-1.126 5.398-.732q-.072-.983-.68-1.609-.607-.643-1.68-.643-1.108 0-1.84.804-.715.786-.715 2.27v.393q.125 1.43.929 2.18.822.733 2.234.733.75 0 1.359-.25.607-.25.965-.536.196.125.304.304.125.16.125.375 0 .34-.394.644-.375.286-1.018.464-.626.179-1.412.179-1.377 0-2.395-.5-1.001-.5-1.555-1.484-.537-1-.537-2.43 0-1.02.286-1.806.304-.804.823-1.358.536-.554 1.269-.84.732-.304 1.59-.304 1.09 0 1.913.465.84.464 1.305 1.304.482.822.482 1.895 0 .393-.179.572-.178.16-.5.196zm15.917-2.234v1.823h-1.43v-1.751q0-1.001-.572-1.466-.554-.465-1.5-.465-.716 0-1.27.18-.554.178-.947.41v3.092h-1.43v-3.02q0-.376.143-.608.16-.25.536-.482.465-.269 1.233-.501.769-.25 1.734-.25 1.627 0 2.556.75.947.733.947 2.288m-7.15.84h1.43v4.576q-.089.036-.267.071-.179.054-.394.054-.375 0-.571-.143-.197-.16-.197-.5zm5.72 0h1.43v4.576q-.09.036-.286.071-.178.054-.375.054-.393 0-.59-.143-.179-.16-.179-.5zm9.755 3.2v-6.006l1.43-.018v6.077q0 .34-.16.554-.144.197-.465.394-.358.232-.966.429-.607.214-1.465.214-1.287 0-2.306-.447-1-.447-1.59-1.394-.572-.965-.572-2.484 0-1.555.536-2.52.554-.966 1.483-1.412.93-.465 2.038-.465.697 0 1.322.196.626.197.983.483v1.323q-.34-.34-.893-.572-.536-.25-1.27-.25-.732 0-1.358.321-.625.304-1 1.019-.376.715-.376 1.912 0 1.627.787 2.378.786.732 2.09.732.626 0 1.02-.125.41-.143.732-.34m1.43-5.666-1.43.018v-4.522q.09-.036.268-.072.197-.053.394-.053.393 0 .572.16.196.143.196.483z" style="font-style:normal;font-variant:normal;font-weight:400;font-stretch:normal;font-family:&quot;Baloo Bhaijaan 2&quot;;-inkscape-font-specification:&quot;Baloo Bhaijaan 2, &quot;;fill:#754fa8;fill-opacity:1;stroke:none;stroke-width:.3723619" transform="matrix(1.32951 0 0 1.35903 70.067 26.009)" aria-label="Love the backend" stroke="none"/></g><path style="fill:url(#b);fill-opacity:1;fill-rule:evenodd;stroke-width:.20356899" d="m113.715 115.409-71.906 60.99.033.038-.293.247 26.793 29.363-13.391 11.332-.205 25.14 26.452-22.385 31.248 34.245.168-.143.22-27.829-17.01-18.64 6.06-5.14 8.938-7.564-.013-.01 2.283-1.937.199-25.16-24.252 20.57-6.08 5.146-13.988-15.33 44.536-37.775z" transform="translate(12.958 -106.06)scale(1.12427)"/><path style="fill:url(#c);fill-opacity:1;fill-rule:evenodd;stroke-width:.20356899" d="m119.047 102.3-.168.144-.218 27.828 17.007 18.64-17.274 14.65-.065 7.641-.05.006.05.001-.004.473-.394 44.46h.05l-.2 25.125c24.162-20.3 72.176-60.912 72.175-61.272 0-.36-26.804-29.38-26.804-29.38l12.723-10.79.167-25.127-25.743 21.83zm29.472 60.706 13.987 15.33-24.825 21.053.214-27.377z" transform="translate(12.958 -106.06)scale(1.12427)"/></svg>