<svg xmlns="http://www.w3.org/2000/svg" xmlns:xlink="http://www.w3.org/1999/xlink" width="1024" height="1024" viewBox="0 0 270.933 270.933"><defs><linearGradient xlink:href="#a" id="c" gradientUnits="userSpaceOnUse" gradientTransform="matrix(10.75997 .07137 -.06867 10.35217 -284.15 -202.225)" x1="31.446" y1="36.266" x2="54.545" y2="32.798" spreadMethod="pad"/><linearGradient id="a"><stop style="stop-color:#764ba2;stop-opacity:1" offset="0"/><stop style="stop-color:#667eea;stop-opacity:1" offset="1"/></linearGradient><linearGradient xlink:href="#a" id="b" gradientUnits="userSpaceOnUse" gradientTransform="matrix(10.75997 .07137 -.06867 10.35217 -284.15 -202.225)" x1="31.446" y1="36.266" x2="54.545" y2="32.798" spreadMethod="pad"/></defs><path style="fill:url(#b);fill-opacity:1;fill-rule:evenodd;stroke-width:.20356899" d="m113.715 115.409-71.906 60.99.033.038-.293.247 26.793 29.363-13.391 11.332-.205 25.14 26.452-22.385 31.248 34.245.168-.143.22-27.829-17.01-18.64 6.06-5.14 8.938-7.564-.013-.01 2.283-1.937.199-25.16-24.252 20.57-6.08 5.146-13.988-15.33 44.536-37.775z" transform="translate(-55.402 -156.891)scale(1.64333)"/><path style="fill:url(#c);fill-opacity:1;fill-rule:evenodd;stroke-width:.20356899" d="m119.047 102.3-.168.144-.218 27.828 17.007 18.64-17.274 14.65-.065 7.641-.05.006.05.001-.004.473-.394 44.46h.05l-.2 25.125c24.162-20.3 72.176-60.912 72.175-61.272 0-.36-26.804-29.38-26.804-29.38l12.723-10.79.167-25.127-25.743 21.83zm29.472 60.706 13.987 15.33-24.825 21.053.214-27.377z" transform="translate(-55.402 -156.891)scale(1.64333)"/></svg>